<svg width="90" height="68" viewBox="0 0 90 68" fill="none" xmlns="http://www.w3.org/2000/svg">
<path fill-rule="evenodd" clip-rule="evenodd" d="M0 11.25C0 8.26631 1.18526 5.40483 3.29505 3.29505C5.40483 1.18526 8.26631 0 11.25 0H78.75C81.7337 0 84.5952 1.18526 86.7049 3.29505C88.8147 5.40483 90 8.26631 90 11.25V56.25C90 59.2337 88.8147 62.0952 86.7049 64.2049C84.5952 66.3147 81.7337 67.5 78.75 67.5H11.25C8.26631 67.5 5.40483 66.3147 3.29505 64.2049C1.18526 62.0952 0 59.2337 0 56.25V11.25ZM11.25 5.625C9.75816 5.625 8.32742 6.21763 7.27252 7.27252C6.21763 8.32742 5.625 9.75816 5.625 11.25V12.4706L45 36.0956L84.375 12.4706V11.25C84.375 9.75816 83.7824 8.32742 82.7275 7.27252C81.6726 6.21763 80.2418 5.625 78.75 5.625H11.25ZM84.375 19.0294L57.8925 34.92L84.375 51.2156V19.0294ZM84.1837 57.7069L52.4588 38.1825L45 42.6544L37.5412 38.1825L5.81625 57.7013C6.13589 58.8982 6.84178 59.9562 7.82432 60.7109C8.80685 61.4656 10.0111 61.8748 11.25 61.875H78.75C79.9882 61.8752 81.1918 61.4668 82.1743 60.7131C83.1567 59.9595 83.8631 58.9028 84.1837 57.7069ZM5.625 51.2156L32.1075 34.92L5.625 19.0294V51.2156Z" fill="#9DC143"/>
</svg>
